# xmcd CD database file
#
# Track frame offsets:
#	150
#	15647
#	34477
#	56420
#	76312
#	102254
#	123855
#	137589
#	151437
#	169305
#	185414
#	204485
#	231178
#	246745
#	266536
#	274217
#
# Disc length: 3765 seconds
#
# Revision: 0
# Processed by: cddbd v1.5.2PL0 Copyright (c) Steve Scherf et al.
# Submitted via: CDex 1.51
#
DISCID=e20eb310
DTITLE=Wolfgang Meyer, Peter Lehel - Choro e Bossa Nova
DYEAR=2009
DGENRE=Jazz
TTITLE0=Vou-me embora pra roça
TTITLE1=Um chorinho pra Vocé
TTITLE2=Alone in the morning
TTITLE3=Bola Preta
TTITLE4=Chorando baixinho
TTITLE5=Soulitude
TTITLE6=Benzinho
TTITLE7=Não me Toques
TTITLE8=Falta-me Vocé
TTITLE9=E do que há
TTITLE10=Naquele tempo
TTITLE11=Samba em Prelúdio
TTITLE12=Armando's Rhumba
TTITLE13=Eu quero é sossego
TTITLE14=A ginga de Mané
TTITLE15=Só para moer
EXTD=YEAR: 2009
EXTT0=
EXTT1=
EXTT2=
EXTT3=
EXTT4=
EXTT5=
EXTT6=
EXTT7=
EXTT8=
EXTT9=
EXTT10=
EXTT11=
EXTT12=
EXTT13=
EXTT14=
EXTT15=
PLAYORDER=
